<?xml version="1.0" encoding="UTF-8"?>
<!DOCTYPE svg PUBLIC "-//W3C//DTD SVG 1.1//EN" "http://www.w3.org/Graphics/SVG/1.1/DTD/svg11.dtd">
<!-- Creator: CorelDRAW 2021 (64-Bit) -->
<svg xmlns="http://www.w3.org/2000/svg" xml:space="preserve" width="21.844mm" height="16.0209mm" version="1.1" style="shape-rendering:geometricPrecision; text-rendering:geometricPrecision; image-rendering:optimizeQuality; fill-rule:evenodd; clip-rule:evenodd"
viewBox="0 0 591.54 433.85"
 xmlns:xlink="http://www.w3.org/1999/xlink"
 xmlns:xodm="http://www.corel.com/coreldraw/odm/2003">
 <defs>
  <style type="text/css">
   <![CDATA[
    .fil0 {fill:#464341}
    .fil1 {fill:#C82022}
   ]]>
  </style>
 </defs>
 <g id="Layer_x0020_1">
  <metadata id="CorelCorpID_0Corel-Layer"/>
  <path class="fil0" d="M451.68 307.23l-6.88 0 0 -22.93 9.17 0c6.19,0 6.32,1.1 11.47,2.29 2.71,11.63 1.52,20.64 -13.76,20.64zm-34.39 48.15c0,8.91 5.88,6.88 20.64,6.88 9.98,0 6.88,-9.72 6.88,-32.1l9.17 0c2.09,8.99 13.39,24.7 18.34,32.1l27.51 0c-3.38,-14.5 -17.43,-25.21 -20.64,-38.98 8.08,-12.06 13.76,-10.62 13.76,-29.81 0,-42.62 -44.14,-34.39 -75.66,-34.39l0 96.3z"/>
  <path class="fil0" d="M506.71 355.38c0,9.36 7.19,6.88 25.22,6.88l0 -43.56 29.81 43.56 29.8 0c-3.44,-14.79 -32.1,-45.05 -32.1,-52.73 0,-5.13 27.64,-43.78 32.1,-50.44l-32.1 0 -27.51 43.56 0 -43.56 -25.22 0 0 96.3z"/>
  <path class="fil1" d="M158.2 245.33l43.56 0c0,-54.66 53.43,-87.23 100.93,-66.54 10.3,4.49 14.82,10.69 22.88,16.1 -8,-29.98 -90.65,-68.71 -141.63,-13.23 -13.41,14.59 -25.15,37.18 -25.74,63.68z"/>
  <path class="fil0" d="M359.97 362.26c15.91,0 27.78,-2.7 37.17,-15.56 9.82,-13.46 8.68,-40.27 8.68,-57.81 0,-8.65 -18.02,-11.47 -27.51,-11.47 0,25.39 4.85,54.48 -10.42,58.57 -28.17,7.56 -19.39,-43.78 -19.39,-67.74 -4.64,-2.23 -21.8,-8.7 -27.51,-9.17 0,21.65 -1.63,51.54 1.98,69.1 2.37,11.52 3.57,16.38 11.11,23.28 6.55,5.99 14.21,10.8 25.89,10.8z"/>
  <path class="fil0" d="M203.21 304.51c2.66,8.21 5.67,12.23 7.72,21.07l-18.34 0 10.62 -21.07zm-45.01 57.75c17.3,0 21.46,2.38 25.22,-13.76l38.98 0c1.29,5.56 2.4,9.2 4.58,13.76l25.22 0c-0.71,-8.6 -7.01,-21.02 -10.68,-28.3l-25.04 -52.92c-4.14,-10.04 -10.38,-20.03 -12.43,-28.84 -7.21,5.28 -6.81,11.53 -14.52,26.75 -5.39,10.63 -8.42,19.23 -13.73,29.83 -5.23,10.44 -8.41,17.8 -13.05,28.22 -6.75,15.16 -17.22,25.25 -4.55,25.25z"/>
  <path class="fil0" d="M48.15 307.23l4.58 0c2.04,8.75 4.84,9.59 6.88,18.34l-18.34 0c2.07,-4.32 5.72,-13.37 6.88,-18.34zm-48.15 55.03l25.22 0c8.61,-16.28 -0.19,-13.76 38.98,-13.76 7.42,0 8.43,8.02 11.46,13.76l25.22 0c-0.84,-10.18 -7.56,-19.5 -11.5,-27.48l-24.39 -53.56c-4.32,-9.01 -11.4,-18.65 -12.26,-29.01 -8.66,6.34 -21.88,41.58 -27.52,52.73l-25.21 57.33z"/>
  <path class="fil0" d="M89.42 284.31l25.22 0 0 77.96c33.25,0 25.22,12.16 25.22,-77.96l25.22 0 0 -25.22 -75.66 0 0 25.22z"/>
  <polygon class="fil0" points="240.74,284.31 265.96,284.31 265.96,362.26 291.19,362.26 291.19,284.31 316.41,284.31 316.41,259.09 240.74,259.09 "/>
  <path class="fil0" d="M256.8 34.39c4.99,-7.45 6.43,-12.77 18.34,-13.76 -4.29,6.4 -8.3,12.92 -18.34,13.76zm-29.81 34.39c0,27.21 11.16,48.58 20.64,66.49 8.49,-5.68 9.67,-4.32 20.64,-6.88 0.2,-9.01 -0.63,-5.38 2.29,-11.46 -26.04,-13.78 -34.39,-11.18 -34.39,-38.98 0,-10.4 10.17,-9.17 16.05,-9.17 8.66,0 13.85,5.58 20.64,9.17 10.88,-20.56 4.59,-5.65 4.59,-27.51 0,-4.22 5.26,-5.84 9.17,-6.88l0 -4.59c-5.23,1.22 -5.27,1.78 -11.46,2.29 2.47,-9.24 2.66,-2.2 3.52,-11.28 0.74,-7.98 -6.07,0.6 6.56,-15.26l10.56 -14.73c-38.58,0 -68.78,30.33 -68.78,68.78z"/>
  <path class="fil1" d="M353.09 233.87c-6.1,1.42 -9.85,2.86 -15.82,4.81 -0.77,0.25 -5.81,1.87 -6.85,2.32 -4.58,1.98 -3.62,1.28 -7.13,4.33l29.69 9.51 0.11 31.76c8.03,-5.38 15.09,-16.95 20.64,-25.22 10.8,2.52 21.08,8.25 32.1,9.17 -5.49,-8.2 -12.85,-17.02 -18.34,-25.22 2.59,-9.71 12.97,-19.49 18.34,-27.51 -9.07,0.2 -25.64,6.07 -32.1,9.17 -4.28,-6.39 -13.43,-22.61 -20.64,-25.22l0 32.1z"/>
  <path class="fil0" d="M311.82 61.91zm0 0zm0 0c3.07,-2.33 -4.82,-2.29 6.88,-2.29 -2.8,2.12 2.58,1.49 -6.88,2.29zm-11.47 2.29c5.07,3.52 2.85,0.37 4.59,6.88 7.03,-0.58 11.02,-2.17 16.05,-4.59 2.76,6.25 -13.86,6.88 22.93,6.88l0 -9.17c14.6,1.21 6.89,9.75 27.51,11.46 1.28,-5.5 6.01,-15.92 5.78,-18.57 -0.65,-7.47 -3.37,-2.4 -3.63,-2.4 -0.27,0.01 -0.97,0.22 -1.27,0.24 -0.32,0.02 -1.03,0.22 -1.38,0.25 -25.05,1.86 -16.32,-0.26 -26.76,-4.68l-23.19 -0.06c-8.97,0 -0.25,-3.46 -13.76,-4.59 -1.06,12.7 -4.25,8.51 -6.88,18.34z"/>
  <path class="fil0" d="M208.65 415c12.92,8.65 5.05,16.05 2.29,16.05 -5.82,0 -1.75,1.66 -9.17,-6.88 4.08,-7.7 0.19,-4.27 6.88,-9.17zm-4.59 -13.76c4.66,-3.89 11.47,-2.26 11.47,2.29 0,8.77 0.7,0.83 -2.29,6.88 -11.31,-3.02 -5.66,-2.49 -9.17,-9.17zm-4.58 0c0,7.97 -0.26,4.23 4.58,11.46 -10.85,16.2 -9.64,20.64 11.47,20.64 0.94,-1.41 1.11,-1.93 2.75,-4.13l3.06 -3.82c0.21,-0.25 0.72,-0.81 1.07,-1.22 -2.71,-5.11 -3.83,-6.91 -6.88,-11.47 4.45,-6.65 4.58,-2.64 4.58,-13.76 -12.36,-6.54 -12.22,-6.99 -20.64,2.29z"/>
  <path class="fil0" d="M437.93 417.29l0 2.29c18.28,0 42.03,-1.34 59.63,-0.01 9.16,0.69 14.61,3.68 27.33,2.14 9.65,-1.17 14.58,-2.13 27.68,-2.13l0 -2.29c-10.18,0 -8.98,-2.29 -20.64,-2.29l-94 2.29z"/>
  <path class="fil0" d="M302.65 158.2l58.94 -0.67c4.34,-1.45 5.68,-4.43 7.55,-6.2 -12.23,0 -24.46,0.02 -36.69,-0 -11.79,-0.02 -29.51,-3.79 -29.8,6.88z"/>
  <path class="fil0" d="M231.57 424.17c0,-6.13 3.31,-6.78 6.88,-9.17 19.89,13.32 -6.88,24.14 -6.88,9.17zm11.47 -13.76c-6.3,-0.54 -4.99,-0.22 -9.17,-2.29l0 -9.17 9.17 0 0 11.47zm0 0c1.44,-0.54 0.86,2.06 6.88,-4.59l-6.88 -11.46c-7.79,0.65 -8.39,1.75 -13.76,4.58 0,11.49 0.08,9.32 4.58,16.05 -19.73,13.22 5.58,24.22 13.76,16.05 5.74,-11.96 0.5,-13.04 -4.58,-20.64z"/>
  <path class="fil0" d="M261.38 401.24c1.9,2.99 2.48,-4.69 2.42,16.1 -0.06,17.92 -0.06,10.37 -2.32,13.81l13.66 2.19 -4.58 -36.68c-10.65,0.89 -4.01,-2.46 -9.17,4.58z"/>
  <path class="fil0" d="M339.34 415l-11.47 -4.58c0.2,-9.01 -0.63,-5.38 2.29,-11.47 3.04,0.25 10.56,-0.61 11.25,9.58 0.76,11.19 -0.01,3.74 -2.08,6.47zm0 0c-0.93,11.18 0.43,3.09 -2.65,8.81 -1,1.85 -3.09,5.09 -4.22,7.24 4.73,-1.26 2.95,0.03 6.06,-3.11 8.83,-8.89 7.69,-18.08 7.69,-26.7 -4.56,-3.05 -6.35,-4.17 -11.47,-6.88 -5.11,2.71 -6.9,3.82 -11.46,6.88 0,14.18 3.48,19.79 16.05,13.76z"/>
  <path class="fil0" d="M337.04 100.88c1.77,0.47 32.52,15.6 34.39,-6.88 -23.18,0 -11.74,0.57 -24.25,2.83 -9.4,1.7 -3.58,-4.91 -10.14,4.05z"/>
  <path class="fil0" d="M389.78 424.17c-18.73,-5 -6.07,-25.65 7.8,-5.51 9.9,14.39 18.13,6.32 19.57,0.48 1.36,-5.55 -0.35,-8.66 -2.14,-11.03 0,9.32 0.77,7.38 -2.29,13.76l-6.88 0c-3.06,-6.37 -2.29,-4.44 -2.29,-13.76 -2.33,3.07 -2.29,-4.82 -2.29,6.88 -9.33,-6.25 -4.42,-8.86 -18.34,-9.17 -6.91,10.31 -6.91,10.33 0,20.64 12.12,0 3.42,-0.02 6.88,-2.29z"/>
  <path class="fil0" d="M41.27 417.29l0 2.29c23.35,0 30.56,2.79 52.9,0.17 15.45,-1.81 42.74,-0.17 59.45,-0.17l-96.3 -4.58c-10.92,0 -7.21,2.29 -16.05,2.29z"/>
  <path class="fil0" d="M307.23 149.03l27.51 0c-7.86,-10.73 -6.52,2.44 -6.88,-13.76l-13.76 0c-2.46,10.56 -3.56,4.6 -6.88,13.76z"/>
  <path class="fil0" d="M304.94 401.24c1.9,2.99 2.48,-4.69 2.41,16.1l-4.71 16 13.76 0c-9.25,-13.81 -3.57,-21.37 -2.29,-36.68 -10.65,0.89 -4.01,-2.46 -9.17,4.58z"/>
  <path class="fil0" d="M330.16 126.1c16.94,-1.41 13.72,-4.81 34.39,0 -4.33,-8.19 -1.23,-11.81 -23.61,-7.56 -10.34,1.97 -8.14,-2.36 -10.79,7.56z"/>
  <path class="fil0" d="M364.56 410.41c-6.54,1.57 -3.45,-0.35 -6.88,4.58 8.89,2.37 8.93,3.1 9.17,13.76 -12.45,2.9 -8.54,4.06 -16.05,-4.58l0 9.17c13.11,0 12.02,-0.03 20.64,-4.58 0,-13.81 1.81,-10.79 -6.88,-18.34z"/>
  <path class="fil0" d="M171.96 403.53c9.36,-1.98 6.88,-6.96 6.88,27.51l6.78 0.1c-4.32,-7.67 -2.2,-25.57 -2.2,-34.49 -8.05,1.87 -7.56,1.26 -11.46,6.88z"/>
  <path class="fil0" d="M364.56 410.41c4.81,-1.28 6.31,-2.27 6.34,-6.81l-6.34 -9.25c-18.13,1.51 -13.15,3.6 -13.76,9.17 5.27,-3.53 4.61,-4.38 13.76,-4.59l0 11.47z"/>
  <polygon class="fil0" points="307.23,162.79 362.26,162.79 362.26,160.49 307.23,160.49 "/>
  <polygon class="fil0" points="314.11,167.37 353.09,167.37 353.09,165.08 314.11,165.08 "/>
  <polygon class="fil0" points="293.48,96.3 325.58,96.3 325.58,94 293.48,94 "/>
  <polygon class="fil0" points="298.07,100.88 327.87,100.88 327.87,98.59 298.07,98.59 "/>
  <polygon class="fil0" points="300.36,105.47 325.58,105.47 325.58,103.18 300.36,103.18 "/>
  <polygon class="fil0" points="323.29,171.96 346.21,171.96 346.21,169.67 323.29,169.67 "/>
  <polygon class="fil0" points="325.58,176.55 343.92,176.55 343.92,174.25 325.58,174.25 "/>
  <polygon class="fil0" points="291.19,91.71 309.53,91.71 309.53,89.42 291.19,89.42 "/>
  <polygon class="fil0" points="302.65,110.05 318.7,110.05 318.7,107.76 302.65,107.76 "/>
  <polygon class="fil0" points="240.74,77.96 254.5,77.96 254.5,75.66 240.74,75.66 "/>
  <path class="fil0" d="M284.31 417.29c4.39,-1.02 -0.04,1.33 5.31,-1.57 2.96,-1.6 2.2,-1.56 3.86,-3.01l-9.17 0 0 4.59z"/>
  <polygon class="fil0" points="307.23,114.64 318.7,114.64 318.7,112.35 307.23,112.35 "/>
  <polygon class="fil0" points="249.92,91.71 261.38,91.71 261.38,89.42 249.92,89.42 "/>
  <polygon class="fil0" points="330.16,181.13 339.34,181.13 339.34,178.84 330.16,178.84 "/>
  <polygon class="fil0" points="252.21,87.13 261.38,87.13 261.38,84.83 252.21,84.83 "/>
  <polygon class="fil0" points="355.39,149.03 362.26,149.03 362.26,146.74 355.39,146.74 "/>
  <polygon class="fil0" points="247.62,96.3 254.5,96.3 254.5,94 247.62,94 "/>
  <polygon class="fil0" points="238.45,82.54 245.33,82.54 245.33,80.25 238.45,80.25 "/>
  <polygon class="fil0" points="243.04,73.37 249.92,73.37 249.92,71.08 243.04,71.08 "/>
  <polygon class="fil0" points="309.53,119.22 316.41,119.22 316.41,116.93 309.53,116.93 "/>
  <path class="fil0" d="M259.09 105.47c2.36,2.35 8.29,-3.3 2.66,-1.24 -0.05,0.02 -6.51,-2.61 -2.66,1.24z"/>
  <path class="fil0" d="M249.92 100.88c2.35,2.36 8.29,-3.3 2.66,-1.24 -0.06,0.02 -6.51,-2.61 -2.66,1.24z"/>
  <path class="fil0" d="M259.09 96.3c2.36,2.35 8.29,-3.3 2.66,-1.24 -0.05,0.02 -6.51,-2.61 -2.66,1.24z"/>
  <path class="fil0" d="M311.82 123.81c2.35,2.35 8.29,-3.3 2.66,-1.24 -0.06,0.02 -6.51,-2.61 -2.66,1.24z"/>
  <path class="fil0" d="M263.67 110.05c2.35,2.35 8.29,-3.3 2.66,-1.24 -0.06,0.02 -6.51,-2.61 -2.66,1.24z"/>
  <path class="fil0" d="M403.54 408.12c4.19,-2.08 2.87,-1.75 9.17,-2.29l-9.17 2.29z"/>
  <polygon class="fil0" points="389.78,424.17 392.07,424.17 390.16,421.49 "/>
  <path class="fil0" d="M252.21 105.47l0.69 -0.69c-0.05,0.05 -0.91,0.45 -0.69,0.69z"/> 
  <path class="fil0" d="M261.38 100.88l0.69 -0.68c-0.05,0.04 -0.91,0.45 -0.69,0.68z"/>
  <path class="fil0" d="M240.74 87.13l0.69 -0.68c-0.05,0.04 -0.91,0.45 -0.69,0.68z"/>
  <path class="fil0" d="M334.75 185.72l0.69 -0.69c-0.05,0.05 -0.91,0.46 -0.69,0.69z"/>
  <polygon class="fil0" points="415,408.12 412.7,405.82 "/>
  <polygon class="fil0" points="261.38,401.24 256.45,402.5 "/>
  <polygon class="fil0" points="304.94,401.24 300.01,402.5 "/>
  <polygon class="fil0" points="332.46,431.05 327.53,432.31 "/>
 </g>
</svg>
